<?xml version="1.0" encoding="UTF-8"?>
<svg xmlns="http://www.w3.org/2000/svg" version="1.1" viewBox="0 0 65.6 66.6">
  <!-- Generator: Adobe Illustrator 29.8.1, SVG Export Plug-In . SVG Version: 2.1.1 Build 2)  -->
  <defs>
    <style>
      .st0 {
        fill: #4a90d9;
      }

      .st1 {
        fill: #d94452;
      }
    </style>
  </defs>
  <g id="Layer_2">
    <rect class="st1" x="32.8" y="22.4" width="8.8" height="37.8"/>
    <rect class="st1" x="32.8" y="52.4" width="20" height="7.8"/>
  </g>
  <g id="Layer_4">
    <path class="st0" d="M52.4,22.5h-19.6v8h11.3c-1.6,4.7-6.1,8-11.3,8s-12-5.4-12-12,5.4-12,12-12,5.8,1.2,8,3l5.7-5.7c-3.6-3.3-8.4-5.4-13.6-5.4-11,0-20,9-20,20s9,20,20,20,20-9,20-20c0-1.4-.1-2.6-.4-3.9Z"/>
  </g>
  <g id="Layer_1">
    <rect class="st1" x="32.8" y="22.4" width="8.8" height="8.1"/>
  </g>
</svg>
